<svg xmlns="http://www.w3.org/2000/svg" width="80" height="28" viewBox="0 0 80 28">
  <title>news-cat-current</title>
  <g id="0c7d6f56-c034-4e20-99a5-25ab6d31d24c" data-name="圖層 2">
    <g id="0104428a-ab22-4d60-82ca-c252fdd65395" data-name="圖層 1">
      <g>
        <path d="M80,23.52V3.93C78,3.93,76.3,3,76.3,0H4.56C4.56,3,2,3.93,0,3.93V23.52A4.49,4.49,0,0,1,4.56,28H76.3C76.3,25,78,23.52,80,23.52Z" fill="#bc824b"/>
        <path d="M78.5,22.25V4.83c-2-.17-2.93-1.33-3.1-3.33H5.46c-.17,2-2,3.16-4,3.33V22.25a4.68,4.68,0,0,1,4,4.25H75.38C75.38,24.5,76.5,22.44,78.5,22.25Z" fill="none" stroke="#fff" stroke-miterlimit="10"/>
      </g>
    </g>
  </g>
</svg>
